<svg version="1.2" xmlns="http://www.w3.org/2000/svg" viewBox="0 0 1897 976" width="1000" height="514">
	<style>
		.s0 { fill: #000000;stroke: #888888;stroke-linejoin: round;stroke-width: 20 } 
		.s1 { fill: #00aaff;stroke: #00aaff;stroke-width: 15 } 
	</style>
	<path id="TDF" fill-rule="evenodd" class="s0" d="m404 222.33v-166.66h663.67q156.66 0 245 88.33 69.53 69.54 84.33 181.42v-269.75h500v166.66h-333.33v166.67h208.33v166.67h-208.33v333.33h-166.67v-269.75q-14.8 111.88-84.33 181.42-88.34 88.33-245 88.33h-166.67v-666.67h-163.67v666.67h-166.66v-666.67zm705.33 0h-41.67v500h41.67q125 0 125-125v-250q0-68.33-30-96.66-30-28.34-95-28.34z"/>
	<path id="j" class="s1" aria-label="j"  d="m138.4 941.8q-48.5 18.8-76.2 8.2-27.2-12-37.3-38.1-9.8-25.2-5.5-55.8 2.5-32.1 18.6-59.8 15.7-28.6 38.6-52.5 38.9-40.8 95-78.7 57-38.2 107.4-77 2.4-16 4.4-32.9 3-17.2 4.5-32.8 4.1-44.5 5.9-87 1.4-43.5 8-95.4-8.4 3.3-12-6.1l4.5-110q0.2-2.3 0.1-5.4-0.5-4.1-2-7.8-4-10.3-11.1-15-7.6-5.7-10.6-7.7l50.6-21.8 4.7-1.8q20.5-8 25.5 5.1 2.6 6.5 2.4 22.7l-6.6 204.2q-1.1 35.8-4.1 72.4-3 36.5-6.5 74.4 55.5-50.5 79.6-101.7 24.7-52.5 31.1-96.8 7-45.6 8.4-75.1 11.2-4.4 14.4 4-1.3 24.1-5 58.8-4.1 33.8-16.1 74.9-12.3 40.2-39.3 83.9-27 43.7-76.5 87.6-6.8 48.8-18.7 103.8-12.3 54.1-33.8 106.4-21.9 51.4-56.3 92.6-33.9 40-86.1 60.2zm-29.6-9.9q30.8-12 56.2-43.3 26.3-31.6 46.2-71.5 19.6-40.9 33.2-80.5 14.5-39.9 21.7-68.5 2.7-9.6 3.7-20.7 1.1-11.1 2.1-22.3-40 29.5-88.3 65.4-48.7 35-82.8 68.6-37.5 36-49.3 80.2-12.2 43.4-1.7 70.4 6.9 17.7 21.5 24.9 15.1 5.9 37.5-2.7zm217.1-834q-12.1 4.7-25-1-12-6.1-17.1-19.1-6.2-15.9 2.2-33 8-18.2 23.8-24.3 13.1-5.1 25.7-0.3 12.5 4.8 17.6 17.8 6.5 16.8-1.5 34.9-8 18.1-25.7 25z"/>
</svg>