<svg version="1.2" xmlns="http://www.w3.org/2000/svg" viewBox="0 0 1897 976" width="1897" height="976">
	<style>
		.s0 { fill: #ffffff;stroke: #888888;stroke-linejoin: round;stroke-width: 20 } 
		.s1 { fill: #00aaff;stroke: #00aaff;stroke-width: 15 } 
	</style>
	<path id="TDF" fill-rule="evenodd" class="s0" d="m404 222.33v-166.66h663.67q156.66 0 245 88.33 69.53 69.54 84.33 181.42v-269.75h500v166.66h-333.33v166.67h208.33v166.67h-208.33v333.33h-166.67v-269.75q-14.8 111.88-84.33 181.42-88.34 88.33-245 88.33h-166.67v-666.67h-163.67v666.67h-166.66v-666.67zm705.33 0h-41.67v500h41.67q125 0 125-125v-250q0-68.33-30-96.66-30-28.34-95-28.34z"/>
	<path id="j" class="s1" aria-label="j"  d="m319.9 123.9q-14 5.4-26.9-0.3-12.4-7-17.8-21-6.9-17.7 2-36.2 8.9-18.5 25.7-25 14.9-5.8 27.9-0.1 12.9 5.7 18 18.8 6.9 17.7-1.7 37.1-8.6 19.4-27.2 26.7zm-181.5 817.9q-48.5 18.8-76.2 8.2-27.2-12-37.3-38.1-9.8-25.2-5.5-55.8 2.5-32.1 18.6-59.8 15.7-28.6 38.6-52.5 38.9-40.8 95-78.7 57-38.2 107.4-77 2.4-16 4.4-32.9 3-17.2 4.5-32.8 4.1-44.5 7.5-80.1 3-36.6 5.6-79.5-2.8 1.1-7.2 0.7-3.5-0.8-5-4.5-1.4-3.7-1-8.2l6.5-126.9q0.2-2.3 0.1-5.4-0.5-4.1-2-7.8-3.6-9.4-11.1-15-7.6-5.7-10.6-7.7l50.6-21.8q13.6-6.3 21-3.9 8 1.2 10.2 6.8 2.1 5.6 1.4 23.1l-6.6 204.2q-1.1 35.8-4.1 72.4-3 36.5-6.5 74.4 23.6-22.1 42.9-41.4 19-20.2 33.9-45.3 14.6-26 24.1-65.1 8.2-34.3 11.5-69.9 3.4-35.6 5.2-50.3 0.8-8.9 2.9-11.8 3-3.3 3.9-3.7 5.6-2.2 8.2 4.4 1.8 4.6 0.6 12.6-4.2 58.4-10.4 100.5-6.5 41.2-19.5 74.1-12.4 31.6-37.8 62.9-25.8 30.4-68.9 68.6-6.8 48.8-18.7 103.8-12.3 54.1-33.8 106.4-21.9 51.4-56.3 92.6-33.9 40-86.1 60.2zm-29.6-9.9q30.8-12 56.2-43.3 26.3-31.6 46.2-71.5 19.6-40.9 33.2-80.5 14.5-39.9 21.7-68.5 2.7-9.6 3.7-20.7 1.1-11.1 2.1-22.3-40 29.5-88.3 65.4-48.7 35-82.8 68.6-37.5 36-49.3 80.2-12.2 43.4-1.7 70.4 6.9 17.7 21.5 24.9 15.1 5.9 37.5-2.7z"/>
</svg>