<svg version="1.2" xmlns="http://www.w3.org/2000/svg" viewBox="0 0 344 694" width="344" height="694">
	<style>
		.s0 { fill: #00aaff;stroke: #00aaff;stroke-width: 15 } 
	</style>
	<path id="j" class="s0" aria-label="j"  d="m95.3 677.2q-35.2 13.6-55.3 5.9-19.6-8.7-27-27.6-7-18.2-4-40.4 1.9-23.2 13.5-43.3 11.4-20.7 28-38 28.1-29.6 68.8-57 41.3-27.7 77.8-55.8 1.7-11.6 3.2-23.8 2.1-12.5 3.2-23.8 3-32.2 4.3-63 1-31.5 5.8-69.1-6 2.3-8.7-4.4l3.3-79.7q0.1-1.7 0-3.9-0.3-3-1.4-5.7-2.9-7.4-8.1-10.9-5.5-4-7.6-5.6l36.6-15.7 3.4-1.3q14.9-5.8 18.5 3.7 1.9 4.7 1.7 16.4l-4.7 147.9q-0.8 26-3 52.4-2.2 26.5-4.7 53.9 40.2-36.5 57.6-73.6 17.9-38 22.6-70.1 5-33.1 6-54.4 8.1-3.2 10.5 2.9-1 17.5-3.7 42.6-2.9 24.4-11.6 54.2-8.9 29.1-28.5 60.8-19.5 31.7-55.4 63.4-4.9 35.4-13.5 75.2-8.9 39.2-24.5 77.1-15.9 37.2-40.8 67.1-24.5 28.9-62.3 43.6zm-21.5-7.2q22.3-8.7 40.7-31.3 19.1-23 33.5-51.9 14.2-29.5 24-58.2 10.5-29 15.7-49.6 2-7 2.7-15.1 0.8-8 1.6-16.1-29 21.4-64 47.4-35.3 25.3-60 49.6-27.2 26.1-35.7 58.2-8.8 31.4-1.2 50.9 4.9 12.9 15.5 18.1 11 4.3 27.2-2zm157.3-604.1q-8.8 3.4-18.2-0.7-8.7-4.4-12.3-13.9-4.5-11.4 1.6-23.9 5.7-13.1 17.2-17.6 9.5-3.6 18.6-0.2 9.1 3.5 12.8 12.9 4.7 12.2-1.1 25.3-5.8 13.1-18.6 18.1z"/>
</svg>